<svg width="2500" height="2500" viewBox="0 0 2500 2500" fill="none" xmlns="http://www.w3.org/2000/svg">
<g clip-path="url(#clip0_551_7)">
<path fill-rule="evenodd" clip-rule="evenodd" d="M0 0H2500V2500H0V0Z" fill="none"/>
<path fill-rule="evenodd" clip-rule="evenodd" d="M36.7563 1052.28H142.265C161.941 1052.28 181.603 1054.07 199.475 1056.75C292.455 1070.16 365.773 1119.34 365.773 1249.87C365.773 1379.52 292.455 1429.57 199.475 1442.08C181.603 1444.77 161.928 1445.65 142.265 1445.65H36.7563V1052.28ZM2429.28 1112.17C2443.57 1112.17 2454.31 1101.44 2454.31 1085.35C2454.31 1069.27 2443.57 1057.63 2429.28 1057.63C2414.96 1057.63 2404.22 1069.25 2404.22 1085.35C2404.22 1101.44 2414.96 1112.17 2429.28 1112.17ZM2429.28 1090.72L2427.47 1088.03H2423.01V1104.13H2415.84V1065.69H2431.04C2439.98 1065.69 2445.36 1069.27 2445.36 1077.31C2445.36 1083.56 2440.87 1087.14 2434.62 1088.03L2445.36 1104.13H2437.3L2429.28 1090.72ZM2429.28 1071.06H2430.16C2433.72 1071.06 2437.3 1071.95 2437.3 1076.43C2437.3 1081.8 2433.74 1082.68 2430.16 1082.68H2423.02V1071.06H2429.28ZM2180.72 1219.46C2210.23 1215.88 2234.35 1203.36 2234.35 1165.81C2234.35 1130.06 2210.24 1120.21 2180.72 1115.75H2127.07V1221.26H2152.1C2161.94 1221.26 2171.77 1220.35 2180.72 1219.46ZM2180.72 1053.17C2250.46 1055.86 2314.83 1070.16 2314.83 1159.56C2314.83 1206.06 2285.32 1244.5 2236.16 1250.75C2256.73 1253.44 2269.24 1274.01 2276.39 1291.89L2338.1 1445.65H2252.25L2205.77 1322.28C2198.62 1304.4 2192.37 1293.66 2180.74 1287.4C2174.48 1283.84 2164.65 1282.04 2152.11 1282.04H2127.08V1445.65H2050.2V1052.28H2133.33C2148.52 1052.28 2165.52 1052.28 2180.72 1053.17ZM1464.57 1170.29C1473.51 1193.53 1477.97 1219.47 1477.97 1248.98C1477.97 1276.69 1473.51 1303.51 1464.57 1327.65C1436.86 1403.61 1369.8 1452.81 1277.73 1452.81C1154.35 1452.81 1075.66 1368.76 1075.66 1248.96C1075.66 1128.25 1156.12 1046.01 1277.73 1046.01C1369.8 1046.01 1436.86 1094.3 1464.57 1170.29ZM1464.57 1087.14L1600.48 1445.65H1629.08L1780.18 1052.28H1699.7L1619.25 1259.69L1533.43 1052.28H1451.17L1464.57 1087.14ZM1799.85 1052.28H2028.72V1115.75H1877.62V1212.31H2015.29V1273.09H1877.63V1383.96H2029.63V1445.65H1799.87V1052.28H1799.85ZM199.475 1122.01C186.064 1117.54 171.759 1115.75 157.466 1115.75H113.654V1383.96H157.466C171.772 1383.96 186.077 1381.28 199.475 1376.82C246.867 1359.82 285.309 1316.02 285.309 1249.86C285.322 1183.7 246.867 1138.1 199.475 1122.01ZM396.174 1052.28H473.954V1445.65H396.174V1052.28ZM723.402 1156.88C696.58 1139.89 667.982 1122.9 637.581 1119.33C609.864 1115.75 580.358 1123.79 580.358 1163.13C580.358 1231.08 750.236 1202.47 750.236 1333.9C750.236 1419.72 682.287 1461.74 604.508 1452.81C562.486 1448.32 538.349 1435.8 505.263 1413.47V1332.99C531.203 1347.31 569.632 1375.02 600.033 1380.39C633.119 1385.75 668.877 1375.9 668.877 1340.15C668.877 1264.16 499.907 1295.45 499.907 1165.8C499.907 1078.19 566.065 1046 634.014 1046C667.995 1046 697.488 1058.51 723.415 1081.76L723.402 1156.88ZM1055.99 1406.31C1036.31 1431.37 989.826 1445.65 958.53 1448.33C837.834 1456.39 757.369 1389.33 757.369 1256.12C757.369 1122.01 828.003 1043.34 958.53 1050.5C984.457 1051.39 1026.48 1060.33 1054.2 1083.57V1158.68C1021.11 1138.12 987.142 1123.82 958.53 1122.92C878.961 1120.24 837.834 1170.3 837.834 1250.77C837.834 1331.24 876.276 1375.92 958.53 1372.36C990.708 1371.47 1038.99 1345.54 1055.99 1331.24V1406.31Z" fill="#0A79FF"/>
</g>
<defs>
<clipPath id="clip0_551_7">
<rect width="2500" height="2500" fill="none"/>
</clipPath>
</defs>
</svg>
