<svg width="2500" height="2500" viewBox="0 0 2500 2500" fill="none" xmlns="http://www.w3.org/2000/svg">
<g clip-path="url(#clip0_553_12)">
<path fill-rule="evenodd" clip-rule="evenodd" d="M0 0H2500V2500H0V0Z" fill="none"/>
<path fill-rule="evenodd" clip-rule="evenodd" d="M2389.71 1250.01C2389.71 877.392 2087.63 575.313 1715.02 575.313C1553.32 575.313 1406.2 631.9 1290 726.748C1378.63 812.322 1446.3 919.466 1482.6 1040.58H1426.54C1391.41 932.902 1329.7 837.899 1249.48 761.662C1168.73 838.565 1108.29 934.281 1073.57 1040.25H1017.5C1053.31 921.361 1118.92 813.601 1208.11 727.215C1092.2 633.34 945.768 575.3 784.982 575.3C412.374 575.3 110.282 877.379 110.282 1250C110.282 1622.61 412.361 1924.69 784.982 1924.69C945.756 1924.69 1092.2 1866.65 1208.11 1772.77C1120.16 1687.46 1053.65 1580.17 1017.5 1459.75H1073.57C1108.29 1565.72 1168.73 1661.43 1249.48 1738.34C1329.71 1662.09 1391.41 1567.1 1426.54 1459.41H1482.6C1446.3 1580.52 1378.63 1687.68 1290 1773.24C1406.2 1868.07 1553.32 1924.67 1715.02 1924.67C2087.63 1924.69 2389.71 1622.61 2389.71 1250.01Z" fill="#0A79FF"/>
<path fill-rule="evenodd" clip-rule="evenodd" d="M1893.85 1408.05L1940.43 1158.41H1999.33L2005.49 1183.01C2016.05 1170.69 2036.27 1158.41 2070.55 1158.41L2052.1 1223.44C2035.38 1223.44 2003.74 1219.07 1983.53 1293.77L1962.43 1408.05H1893.85ZM991.085 1094.96H1058.97L1045.04 1161.11H1081.57L1069.41 1215.06H1034.6L1015.44 1316C1011.95 1335.16 1013.7 1352.58 1052.87 1346.48L1048.52 1396.95C1033.72 1406.52 1013.7 1409.15 998.024 1409.15C982.369 1409.15 931.009 1399.55 944.083 1331.68L991.085 1094.96ZM1285.25 1296.87C1293.09 1256.82 1311.37 1157.63 1192.14 1157.63C1082.47 1157.63 1068.55 1266.41 1065.95 1282.06C1063.34 1297.74 1061.6 1408.26 1179.08 1408.26C1207.81 1409.14 1249.59 1405.65 1266.13 1396.93L1276.58 1345.61C1266.13 1348.19 1226.95 1351.7 1199.96 1351.7C1173 1351.7 1129.49 1353.45 1137.31 1296.87H1285.25ZM926.703 1216.81L942.358 1166.32C910.154 1154.14 884.927 1156.76 875.343 1156.76C865.758 1156.76 784.269 1155.76 771.779 1215.94C762.207 1262.07 779.094 1281.15 795.28 1288.17C821.402 1299.49 836.2 1309.93 850.13 1316.9C867.353 1325.51 864.189 1354.32 841.414 1354.32C830.96 1354.32 785.722 1359.53 751.78 1348.21L742.208 1399.55C773.543 1408.27 798.756 1408.27 822.283 1408.27C838.807 1408.27 919.751 1412.63 931.048 1337.77C936.573 1301.27 920.607 1284.67 907.547 1276.87C894.499 1268.16 872.736 1255.98 858.819 1249.87C844.89 1243.79 834.449 1220.3 859.688 1213.33C875.343 1211.58 907.534 1211.58 926.703 1216.81ZM486.328 1408.26L542.889 1107.14H431.504L348.809 1289.91L335.749 1107.14H226.971L168.659 1408.26H236.53L278.306 1190.69L296.593 1408.26H360.988L455.862 1195.92L415.824 1408.26H486.328ZM561.15 1165.46L550.71 1219.42C567.259 1217.69 611.642 1210.73 635.13 1211.58C658.644 1212.45 684.739 1208.98 676.905 1246.39C659.5 1248.15 537.662 1228.99 518.532 1333.41C510.698 1384.78 555.067 1410.88 589.878 1409.15C624.689 1407.4 634.261 1403.04 646.452 1394.33L655.155 1408.26H718.668L745.658 1272.5C752.623 1238.56 763.92 1156.75 649.928 1156.75C629.047 1157.63 605.559 1156.75 561.15 1165.46ZM1661.22 1176.76C1643.79 1166.31 1631.64 1164.58 1608.99 1164.58C1586.37 1164.58 1535.88 1186.2 1526.33 1247.26C1515.01 1319.49 1564.61 1355.16 1634.24 1331.68L1654.25 1392.6C1631.64 1403.04 1608.99 1408.26 1571.57 1408.26C1501.07 1408.26 1424.5 1345.61 1459.31 1218.54C1484.97 1124.91 1565.5 1090.61 1612.49 1092.35C1668.17 1094.43 1688.21 1113.23 1705.62 1132.39L1661.22 1176.76ZM2239.97 1187.2C2226.9 1177.64 2219.1 1157.63 2186.87 1157.63C2149.45 1157.63 2091.14 1150.66 2058.08 1263.8C2035.97 1339.41 2080.7 1408.27 2129.42 1408.27C2152.06 1407.41 2174.68 1397.83 2188.58 1388.26L2197.33 1408.27H2270.41L2329.6 1091.5H2258.22L2239.97 1187.2ZM1709.96 1165.46L1699.49 1219.42C1716.06 1217.69 1760.41 1210.73 1783.93 1211.58C1807.43 1212.45 1833.55 1208.98 1825.7 1246.39C1808.3 1248.15 1686.46 1228.99 1667.33 1333.41C1659.48 1384.78 1703.85 1410.88 1738.66 1409.15C1773.5 1407.4 1783.04 1403.04 1795.25 1394.33L1803.96 1408.26H1867.46L1894.47 1272.5C1901.43 1238.56 1912.73 1156.75 1798.71 1156.75C1777.84 1157.63 1754.34 1156.75 1709.96 1165.46Z" fill="white"/>
<path fill-rule="evenodd" clip-rule="evenodd" d="M1141.65 1251.62H1226.07C1230.43 1227.25 1222.59 1206.36 1195.62 1206.36C1168.63 1206.36 1149.48 1220.29 1141.65 1251.62ZM665.608 1296.87C654.286 1295.1 629.046 1288.16 607.283 1302.96C585.52 1317.75 579.437 1343.84 602.069 1352.58C623.846 1360.94 655.998 1346.49 660.381 1323.82L665.608 1296.87ZM2215.6 1289.03C2222.56 1266.41 2218.76 1238.16 2211.24 1228.13C2190.37 1200.29 2142.35 1222.3 2127.7 1276.87C2118.13 1312.54 2139.03 1339.52 2162.51 1339.52C2187.77 1339.5 2203.42 1319.49 2215.6 1289.03ZM1814.41 1296.87C1803.08 1295.1 1777.86 1288.16 1756.09 1302.96C1734.33 1317.75 1728.23 1343.84 1750.88 1352.58C1772.67 1360.94 1804.81 1346.49 1809.17 1323.82L1814.41 1296.87Z" fill="#0A79FF"/>
<path fill-rule="evenodd" clip-rule="evenodd" d="M1287.2 1408.26L1333.33 1161.11H1391.64L1397.73 1185.48C1408.19 1173.28 1428.2 1161.11 1462.12 1161.11L1444.72 1226.38C1428.2 1226.38 1395.97 1221.17 1375.96 1295.11L1355.09 1408.27L1287.2 1408.26Z" fill="white"/>
</g>
<defs>
<clipPath id="clip0_553_12">
<rect width="2500" height="2500" fill="none"/>
</clipPath>
</defs>
</svg>
