<svg width="2500" height="2500" viewBox="0 0 2500 2500" fill="none" xmlns="http://www.w3.org/2000/svg">
<g clip-path="url(#clip0_553_32)">
<path fill-rule="evenodd" clip-rule="evenodd" d="M0 0H2500V2500H0V0Z" fill="none"/>
<path d="M467.163 938H306.953C301.649 937.996 296.519 940.143 292.486 944.053C288.453 947.963 285.782 953.379 284.956 959.326L220.16 1425.65C219.862 1427.82 219.981 1430.03 220.508 1432.13C221.036 1434.24 221.959 1436.19 223.215 1437.86C224.47 1439.52 226.029 1440.85 227.782 1441.77C229.536 1442.68 231.443 1443.15 233.372 1443.15H309.858C315.165 1443.15 320.299 1441 324.332 1437.09C328.366 1433.17 331.034 1427.75 331.855 1421.8L349.331 1296.02C350.151 1290.07 352.816 1284.65 356.844 1280.74C360.873 1276.83 366.001 1274.67 371.304 1274.67H422.021C527.555 1274.67 588.462 1216.7 604.368 1101.83C611.537 1051.57 604.673 1012.08 583.941 984.428C561.171 954.061 520.785 938 467.163 938ZM485.646 1108.32C476.885 1173.57 432.961 1173.57 390.49 1173.57H366.314L383.275 1051.7C383.771 1048.14 385.372 1044.89 387.79 1042.55C390.208 1040.2 393.284 1038.91 396.464 1038.91H407.544C436.475 1038.91 463.766 1038.91 477.869 1057.63C486.278 1068.8 488.855 1085.39 485.646 1108.32ZM946.059 1106.21H869.339C866.159 1106.21 863.083 1107.5 860.666 1109.85C858.248 1112.19 856.647 1115.44 856.15 1119L852.753 1143.36L847.389 1134.53C830.78 1107.17 793.744 1098.02 756.777 1098.02C671.999 1098.02 599.59 1170.91 585.487 1273.15C578.155 1324.15 588.579 1372.92 614.067 1406.93C637.446 1438.2 670.898 1451.23 710.699 1451.23C779.009 1451.23 816.888 1401.37 816.888 1401.37L813.468 1425.57C813.163 1427.74 813.275 1429.95 813.797 1432.06C814.318 1434.17 815.236 1436.12 816.487 1437.79C817.738 1439.46 819.293 1440.8 821.045 1441.72C822.797 1442.64 824.703 1443.12 826.634 1443.12H895.74C901.047 1443.13 906.181 1440.97 910.214 1437.06C914.248 1433.14 916.916 1427.72 917.737 1421.77L959.201 1123.71C959.506 1121.55 959.395 1119.34 958.874 1117.24C958.354 1115.13 957.438 1113.18 956.188 1111.52C954.939 1109.86 953.386 1108.52 951.637 1107.6C949.888 1106.69 947.985 1106.21 946.059 1106.21ZM839.12 1275.71C831.717 1325.46 796.929 1358.86 752.561 1358.86C730.283 1358.86 712.479 1350.75 701.047 1335.38C689.709 1320.11 685.399 1298.39 689.006 1274.19C695.917 1224.86 731.29 1190.37 774.979 1190.37C796.766 1190.37 814.475 1198.59 826.142 1214.09C837.831 1229.76 842.469 1251.61 839.12 1275.71ZM1354.65 1106.21H1277.56C1273.92 1106.22 1270.34 1107.23 1267.13 1109.17C1263.92 1111.1 1261.17 1113.89 1259.12 1117.3L1152.79 1295.09L1107.72 1124.24C1106.34 1119.03 1103.51 1114.47 1099.67 1111.22C1095.82 1107.97 1091.15 1106.22 1086.36 1106.21H1010.6C1008.47 1106.21 1006.37 1106.78 1004.48 1107.88C1002.59 1108.98 1000.95 1110.57 999.713 1112.54C998.473 1114.5 997.664 1116.77 997.353 1119.15C997.041 1121.54 997.237 1123.98 997.924 1126.26L1082.84 1409.14L1003.01 1537.07C1001.59 1539.34 1000.75 1542 1000.57 1544.78C1000.4 1547.55 1000.91 1550.33 1002.03 1552.8C1003.16 1555.27 1004.86 1557.34 1006.95 1558.79C1009.05 1560.24 1011.45 1561 1013.9 1561H1090.9C1094.5 1561.01 1098.04 1560.02 1101.23 1558.13C1104.41 1556.24 1107.15 1553.5 1109.2 1550.15L1365.62 1130.01C1367.01 1127.74 1367.82 1125.08 1367.97 1122.32C1368.13 1119.56 1367.61 1116.8 1366.48 1114.35C1365.35 1111.9 1363.65 1109.84 1361.57 1108.41C1359.48 1106.97 1357.09 1106.22 1354.65 1106.21Z" fill="#0A79FF"/>
<path d="M1609.16 938.027H1448.93C1443.63 938.029 1438.51 940.177 1434.48 944.085C1430.45 947.992 1427.79 953.402 1426.96 959.342L1362.16 1425.43C1361.86 1427.59 1361.98 1429.8 1362.5 1431.9C1363.02 1434.01 1363.94 1435.96 1365.19 1437.62C1366.45 1439.28 1368 1440.62 1369.75 1441.53C1371.5 1442.45 1373.4 1442.92 1375.33 1442.92H1457.55C1461.26 1442.91 1464.85 1441.41 1467.67 1438.67C1470.48 1435.93 1472.35 1432.14 1472.92 1427.98L1491.31 1295.87C1492.13 1289.92 1494.8 1284.51 1498.82 1280.59C1502.85 1276.68 1507.98 1274.53 1513.28 1274.53H1563.98C1669.53 1274.53 1730.42 1216.59 1746.35 1101.77C1753.54 1051.54 1746.63 1012.07 1725.9 984.431C1703.15 954.079 1662.79 938.027 1609.16 938.027ZM1627.65 1108.26C1618.91 1173.48 1574.99 1173.48 1532.49 1173.48H1508.34L1525.32 1051.67C1525.81 1048.11 1527.41 1044.86 1529.82 1042.52C1532.24 1040.17 1535.31 1038.88 1538.49 1038.89H1549.57C1578.48 1038.89 1605.79 1038.89 1619.89 1057.6C1628.3 1068.76 1630.86 1085.35 1627.65 1108.26ZM2088.03 1106.16H2011.36C2008.18 1106.15 2005.1 1107.43 2002.69 1109.78C2000.27 1112.12 1998.68 1115.37 1998.2 1118.94L1994.8 1143.29L1989.41 1134.46C1972.8 1107.11 1935.79 1097.97 1898.82 1097.97C1814.05 1097.97 1741.66 1170.82 1727.56 1273.01C1720.25 1323.99 1730.63 1372.73 1756.11 1406.72C1779.54 1437.98 1812.95 1451 1852.75 1451C1921.06 1451 1958.93 1401.17 1958.93 1401.17L1955.51 1425.35C1955.21 1427.52 1955.32 1429.74 1955.85 1431.85C1956.37 1433.96 1957.29 1435.92 1958.55 1437.59C1959.8 1439.25 1961.37 1440.59 1963.12 1441.51C1964.88 1442.43 1966.79 1442.9 1968.73 1442.89H2037.81C2043.11 1442.89 2048.24 1440.74 2052.27 1436.83C2056.3 1432.91 2058.96 1427.5 2059.78 1421.55L2101.27 1123.64C2101.56 1121.48 2101.44 1119.27 2100.91 1117.16C2100.38 1115.06 2099.45 1113.11 2098.2 1111.45C2096.94 1109.78 2095.38 1108.45 2093.63 1107.54C2091.87 1106.63 2089.96 1106.15 2088.03 1106.16ZM1981.1 1275.56C1973.74 1325.29 1938.91 1358.67 1894.54 1358.67C1872.31 1358.67 1854.46 1350.56 1843.02 1335.2C1831.69 1319.95 1827.42 1298.23 1830.98 1274.05C1837.94 1224.75 1873.27 1190.27 1916.96 1190.27C1938.74 1190.27 1956.45 1198.49 1968.12 1213.98C1979.85 1229.64 1984.49 1251.48 1981.1 1275.56ZM2178.48 950.81L2112.72 1425.43C2112.42 1427.59 2112.54 1429.8 2113.06 1431.9C2113.58 1434.01 2114.5 1435.96 2115.75 1437.62C2117.01 1439.28 2118.56 1440.62 2120.31 1441.53C2122.06 1442.45 2123.96 1442.92 2125.89 1442.92H2192C2202.98 1442.92 2212.31 1433.88 2213.99 1421.58L2278.84 955.515C2279.14 953.354 2279.02 951.146 2278.5 949.04C2277.98 946.935 2277.06 944.983 2275.81 943.319C2274.56 941.655 2273 940.318 2271.25 939.399C2269.5 938.481 2267.6 938.004 2265.67 938H2191.65C2188.47 938.013 2185.4 939.309 2182.98 941.656C2180.57 944.004 2178.98 947.249 2178.48 950.81Z" fill="#0A79FF"/>
</g>
<defs>
<clipPath id="clip0_553_32">
<rect width="2500" height="2500" fill="white"/>
</clipPath>
</defs>
</svg>
