<svg width="2500" height="2500" viewBox="0 0 2500 2500" fill="none" xmlns="http://www.w3.org/2000/svg">
<g clip-path="url(#clip0_553_26)">
<path fill-rule="evenodd" clip-rule="evenodd" d="M0 0H2500V2500H0V0Z" fill="none"/>
<path d="M1609.88 867C1441.03 867 1290.14 953.893 1290.14 1114.44C1290.14 1298.55 1557.75 1311.26 1557.75 1403.75C1557.75 1442.7 1512.8 1477.56 1436.02 1477.56C1327.07 1477.56 1245.63 1428.85 1245.63 1428.85L1210.79 1590.85C1210.79 1590.85 1304.6 1632 1429.15 1632C1613.75 1632 1759.01 1540.84 1759.01 1377.55C1759.01 1183.01 1490.29 1170.67 1490.29 1084.82C1490.29 1054.31 1527.19 1020.88 1603.75 1020.88C1690.12 1020.88 1760.59 1056.31 1760.59 1056.31L1794.7 899.844C1794.7 899.844 1718.02 867 1609.88 867ZM65.0895 878.81L61 902.428C61 902.428 132.035 915.334 196.013 941.084C278.388 970.607 284.258 987.797 298.131 1041.18L449.309 1619.82H651.97L964.181 878.81H761.986L561.373 1382.63L479.511 955.567C472.004 906.691 433.975 878.81 387.426 878.81H65.0895ZM1045.48 878.81L886.871 1619.82H1079.68L1237.74 878.808H1045.48V878.81ZM2120.84 878.81C2074.35 878.81 2049.72 903.524 2031.64 946.711L1749.16 1619.82H1951.36L1990.48 1507.63H2236.81L2260.6 1619.82H2439L2283.36 878.81H2120.84ZM2147.14 1079.01L2207.07 1357.07H2046.51L2147.14 1079.01Z" fill="#0A79FF"/>
</g>
<defs>
<clipPath id="clip0_553_26">
<rect width="2500" height="2500" fill="white"/>
</clipPath>
</defs>
</svg>
